<?xml version="1.0" standalone="no"?>
<!DOCTYPE svg PUBLIC "-//W3C//DTD SVG 20010904//EN"
 "http://www.w3.org/TR/2001/REC-SVG-20010904/DTD/svg10.dtd">
<svg version="1.0" xmlns="http://www.w3.org/2000/svg"
 width="902.000000pt" height="894.000000pt" viewBox="0 0 902.000000 894.000000"
 preserveAspectRatio="xMidYMid meet">

<g transform="translate(0.000000,894.000000) scale(0.100000,-0.100000)"
fill="#000000" stroke="none">
<path d="M0 4470 l0 -4470 4510 0 4510 0 0 4470 0 4470 -4510 0 -4510 0 0
-4470z m4745 3650 c427 -27 784 -107 1160 -257 739 -297 1359 -851 1770 -1583
302 -536 455 -1115 455 -1717 0 -372 -52 -744 -151 -1078 -67 -224 -226 -587
-340 -772 -23 -37 -50 -84 -61 -103 -103 -179 -307 -440 -488 -621 -288 -289
-553 -484 -895 -658 -167 -85 -205 -102 -385 -171 -285 -109 -740 -217 -880
-208 l-55 3 -3 389 c-1 224 2 394 7 399 5 5 82 22 172 38 278 49 350 69 584
161 327 130 673 364 923 627 248 260 443 560 576 881 61 151 125 356 147 478
25 143 31 175 44 276 19 142 20 484 1 636 -33 261 -118 565 -223 800 -48 106
-58 126 -112 225 -224 414 -600 800 -1014 1044 -276 162 -622 288 -929 340
-38 6 -98 17 -135 23 -94 18 -611 17 -718 0 -44 -7 -111 -18 -150 -24 -91 -14
-346 -78 -460 -116 -867 -287 -1518 -951 -1789 -1825 -90 -290 -126 -538 -126
-867 0 -223 8 -314 47 -527 l27 -142 -26 -88 c-36 -124 -62 -234 -77 -333 -59
-374 -48 -761 28 -977 19 -53 18 -72 -3 -50 -78 84 -283 397 -366 562 -126
248 -228 514 -291 755 -41 156 -63 280 -91 505 -16 137 -16 607 1 760 70 646
314 1274 689 1775 486 651 1212 1131 2013 1331 384 96 761 132 1124 109z
m1273 -2762 c-7 -4 -382 -8 -833 -8 -845 0 -1005 -6 -1264 -45 -372 -56 -759
-196 -1030 -372 -187 -121 -399 -314 -516 -467 -86 -113 -103 -132 -109 -125
-7 7 40 195 72 294 224 677 681 1169 1287 1388 87 31 186 62 245 75 25 6 65
15 90 21 214 50 458 68 1125 81 450 9 499 13 640 62 76 26 191 87 253 134 l47
36 3 -533 c2 -420 0 -534 -10 -541z m14 -963 c1 -294 2 -543 2 -552 1 -17 -44
-18 -764 -24 -886 -7 -950 -12 -1285 -99 -180 -48 -256 -72 -380 -123 -529
-218 -838 -539 -960 -1002 -46 -174 -66 -525 -41 -730 22 -180 27 -233 20
-215 -3 8 -9 24 -14 35 -4 11 -13 40 -20 65 -7 25 -16 56 -20 70 -4 14 -13 43
-19 65 -6 22 -19 72 -30 110 -99 351 -118 846 -45 1155 28 116 104 333 149
425 243 498 711 854 1308 994 303 71 407 81 1007 91 445 8 516 11 595 29 174
38 274 84 401 185 38 30 75 55 82 56 9 0 12 -114 14 -535z m-1882 -2251 c0
-1048 -2 -1185 -15 -1190 -16 -6 -170 9 -285 27 -158 26 -451 107 -500 139
-13 8 -15 113 -15 847 0 963 -11 862 107 988 123 132 239 205 463 293 183 72
230 89 238 85 4 -2 7 -537 7 -1189z"/>
</g>
</svg>
