<?xml version="1.0" standalone="no"?>
<!DOCTYPE svg PUBLIC "-//W3C//DTD SVG 20010904//EN"
 "http://www.w3.org/TR/2001/REC-SVG-20010904/DTD/svg10.dtd">
<svg version="1.0" xmlns="http://www.w3.org/2000/svg"
 width="1140.000000pt" height="1140.000000pt" viewBox="0 0 1140.000000 1140.000000"
 preserveAspectRatio="xMidYMid meet">

<g transform="translate(0.000000,1140.000000) scale(0.100000,-0.100000)"
fill="#000000" stroke="none">
<path d="M0 5700 l0 -5700 5700 0 5700 0 0 5700 0 5700 -5700 0 -5700 0 0
-5700z m5875 4740 c427 -27 784 -107 1160 -257 739 -297 1359 -851 1770 -1583
302 -536 455 -1115 455 -1717 0 -372 -52 -744 -151 -1078 -67 -224 -226 -587
-340 -772 -23 -37 -50 -84 -61 -103 -103 -179 -307 -440 -488 -621 -288 -289
-553 -484 -895 -658 -167 -85 -205 -102 -385 -171 -285 -109 -740 -217 -880
-208 l-55 3 -3 389 c-1 224 2 394 7 399 5 5 82 22 172 38 278 49 350 69 584
161 327 130 673 364 923 627 248 260 443 560 576 881 61 151 125 356 147 478
25 143 31 175 44 276 19 142 20 484 1 636 -33 261 -118 565 -223 800 -48 106
-58 126 -112 225 -224 414 -600 800 -1014 1044 -276 162 -622 288 -929 340
-38 6 -98 17 -135 23 -94 18 -611 17 -718 0 -44 -7 -111 -18 -150 -24 -91 -14
-346 -78 -460 -116 -867 -287 -1518 -951 -1789 -1825 -90 -290 -126 -538 -126
-867 0 -223 8 -314 47 -527 l27 -142 -26 -88 c-36 -124 -62 -234 -77 -333 -59
-374 -48 -761 28 -977 19 -53 18 -72 -3 -50 -78 84 -283 397 -366 562 -126
248 -228 514 -291 755 -41 156 -63 280 -91 505 -16 137 -16 607 1 760 70 646
314 1274 689 1775 486 651 1212 1131 2013 1331 384 96 761 132 1124 109z
m1273 -2762 c-7 -4 -382 -8 -833 -8 -845 0 -1005 -6 -1264 -45 -372 -56 -759
-196 -1030 -372 -187 -121 -399 -314 -516 -467 -86 -113 -103 -132 -109 -125
-7 7 40 195 72 294 224 677 681 1169 1287 1388 87 31 186 62 245 75 25 6 65
15 90 21 214 50 458 68 1125 81 450 9 499 13 640 62 76 26 191 87 253 134 l47
36 3 -533 c2 -420 0 -534 -10 -541z m14 -963 c1 -294 2 -543 2 -552 1 -17 -44
-18 -764 -24 -886 -7 -950 -12 -1285 -99 -180 -48 -256 -72 -380 -123 -529
-218 -838 -539 -960 -1002 -46 -174 -66 -525 -41 -730 22 -180 27 -233 20
-215 -3 8 -9 24 -14 35 -4 11 -13 40 -20 65 -7 25 -16 56 -20 70 -4 14 -13 43
-19 65 -6 22 -19 72 -30 110 -99 351 -118 846 -45 1155 28 116 104 333 149
425 243 498 711 854 1308 994 303 71 407 81 1007 91 445 8 516 11 595 29 174
38 274 84 401 185 38 30 75 55 82 56 9 0 12 -114 14 -535z m-1882 -2251 c0
-1048 -2 -1185 -15 -1190 -16 -6 -170 9 -285 27 -158 26 -451 107 -500 139
-13 8 -15 113 -15 847 0 963 -11 862 107 988 123 132 239 205 463 293 183 72
230 89 238 85 4 -2 7 -537 7 -1189z m610 -2560 c0 -129 3 -234 7 -234 4 0 21
13 38 29 99 96 292 119 439 51 108 -49 205 -160 246 -279 84 -249 -25 -538
-244 -646 -162 -81 -336 -62 -454 49 -27 25 -52 46 -55 46 -3 0 -7 -30 -9 -67
l-3 -68 -101 -3 c-77 -2 -104 1 -113 11 -8 11 -10 188 -9 683 l3 669 115 5
c63 3 121 1 128 -4 9 -6 12 -67 12 -242z m3185 106 l0 -115 -125 0 -125 0 -3
118 -3 118 128 -3 128 -3 0 -115z m-7057 -57 l-3 -138 -312 -3 -313 -2 0 -150
0 -150 258 0 c192 0 263 -3 275 -13 15 -11 17 -28 15 -132 l-3 -120 -272 -3
-273 -2 0 -73 c0 -39 -3 -143 -7 -230 l-6 -158 -136 3 -136 3 -3 640 c-1 352
0 646 3 653 3 9 105 12 460 12 l456 0 -3 -137z m669 -167 c136 -29 245 -111
283 -213 19 -50 20 -77 20 -423 l0 -370 -109 0 c-121 0 -121 0 -121 71 0 21
-3 39 -6 39 -4 0 -22 -14 -41 -30 -85 -75 -227 -113 -341 -90 -126 24 -208 83
-258 186 -85 174 6 365 214 445 45 17 78 21 157 21 105 0 162 -14 215 -52 51
-36 60 -23 39 55 -37 133 -233 185 -395 105 -36 -18 -69 -28 -74 -24 -4 5 -28
40 -53 78 -53 80 -54 78 34 132 123 74 291 101 436 70z m1228 3 c163 -30 266
-121 310 -274 15 -51 18 -108 19 -395 l1 -335 -125 0 -125 0 -6 285 c-3 170
-10 299 -17 319 -61 183 -280 224 -387 73 l-30 -44 -5 -316 -5 -317 -125 0
-125 0 -3 498 -2 498 122 -3 123 -3 5 -58 5 -58 42 39 c49 46 98 71 173 88 72
16 85 16 155 3z m1101 -3 c143 -27 242 -93 290 -194 l28 -57 9 -353 c5 -195 6
-365 3 -378 -6 -24 -7 -25 -114 -22 l-107 3 -3 53 c-3 56 -10 62 -36 33 -24
-26 -131 -79 -196 -96 -223 -60 -449 79 -467 287 -13 139 57 256 192 319 131
62 268 63 391 4 40 -19 77 -35 82 -35 13 0 3 77 -14 111 -57 114 -291 145
-413 54 -18 -13 -39 -21 -46 -19 -7 3 -34 39 -60 81 l-48 76 24 20 c38 31 199
104 254 115 74 14 152 14 231 -2z m2377 3 c40 -7 104 -26 142 -44 175 -80 257
-225 259 -455 l1 -95 -355 -8 c-195 -5 -358 -12 -362 -16 -15 -14 57 -116 104
-148 108 -72 285 -48 388 53 l36 34 63 -64 63 -64 -30 -44 c-59 -86 -173 -148
-309 -169 -126 -19 -255 13 -374 92 -96 65 -159 156 -195 283 -24 86 -15 260
17 336 43 103 108 179 201 236 63 38 92 49 183 69 79 17 84 17 168 4z m1225
-98 c2 -62 -1 -108 -8 -116 -6 -7 -34 -16 -62 -19 -111 -15 -229 -104 -256
-192 -7 -24 -12 -138 -13 -299 -1 -143 -4 -266 -6 -272 -4 -10 -39 -13 -129
-13 l-124 0 0 500 0 500 125 0 125 0 0 -78 c0 -43 3 -81 6 -85 4 -3 27 15 53
41 52 53 119 94 201 122 85 29 85 30 88 -89z m1286 95 c97 -21 188 -68 229
-119 83 -102 89 -140 85 -552 l-3 -330 -95 -3 c-136 -4 -140 -2 -140 58 0 28
-3 50 -6 50 -3 0 -22 -13 -42 -29 -97 -78 -235 -114 -350 -92 -148 29 -245
113 -278 240 -27 106 4 226 79 301 123 126 380 158 527 65 22 -14 42 -25 45
-25 3 0 5 20 5 44 0 82 -63 143 -171 166 -74 16 -153 3 -237 -38 -31 -15 -56
-22 -61 -16 -4 5 -32 40 -61 78 l-52 70 28 20 c145 108 323 148 498 112z
m-829 -48 c3 -13 4 -232 3 -488 l-3 -465 -119 -3 c-79 -2 -123 1 -132 9 -12
10 -14 88 -14 476 1 255 3 470 6 478 5 12 30 15 130 15 120 0 124 -1 129 -22z"/>
<path d="M6079 1551 c-109 -34 -199 -151 -199 -261 0 -60 37 -147 82 -192 171
-171 428 -72 428 166 0 97 -33 171 -106 235 -63 55 -133 73 -205 52z"/>
<path d="M2450 1251 c-48 -10 -96 -39 -112 -69 -20 -38 -14 -115 12 -150 50
-68 200 -90 285 -42 101 56 131 127 80 188 -46 55 -178 91 -265 73z"/>
<path d="M4735 1235 c-53 -23 -70 -50 -70 -114 0 -65 26 -110 78 -138 41 -22
177 -22 227 0 65 29 110 83 110 133 0 77 -100 135 -233 133 -45 0 -96 -7 -112
-14z"/>
<path d="M7231 1549 c-82 -25 -161 -109 -161 -172 l0 -27 235 0 c264 0 252 -4
220 73 -41 98 -185 159 -294 126z"/>
<path d="M9624 1235 c-105 -46 -112 -174 -14 -247 58 -42 182 -35 257 15 51
35 93 88 93 119 0 34 -36 73 -94 101 -46 23 -67 27 -133 26 -43 0 -92 -7 -109
-14z"/>
</g>
</svg>
